HIERARCHY
ROOT mixamorig:Hips
{
	OFFSET -0.000008 104.274872 1.554316
	CHANNELS 6 Xposition Yposition Zposition Xrotation Yrotation Zrotation
	JOINT mixamorig:Spine
	{
		OFFSET -0.000005 10.181595 0.131519
		CHANNELS 6 Xposition Yposition Zposition Xrotation Yrotation Zrotation
		JOINT mixamorig:Spine1
		{
			OFFSET -0.000000 9.893959 -1.470707
			CHANNELS 6 Xposition Yposition Zposition Xrotation Yrotation Zrotation
			JOINT mixamorig:Spine2
			{
				OFFSET -0.000000 9.220757 -1.370641
				CHANNELS 6 Xposition Yposition Zposition Xrotation Yrotation Zrotation
				JOINT mixamorig:Neck
				{
					OFFSET 0.000001 16.740417 -2.049036
					CHANNELS 6 Xposition Yposition Zposition Xrotation Yrotation Zrotation
					JOINT mixamorig:Head
					{
						OFFSET 0.000000 9.617874 1.685006
						CHANNELS 6 Xposition Yposition Zposition Xrotation Yrotation Zrotation
						JOINT mixamorig:HeadTop_End
						{
							OFFSET 0.000002 22.037354 7.501101
							CHANNELS 6 Xposition Yposition Zposition Xrotation Yrotation Zrotation
							End Site
							{
								OFFSET 0.000168 2310.654297 -282.823242
							}
						}
					}
				}
				JOINT mixamorig:RightShoulder
				{
					OFFSET -4.569970 11.014908 -2.160885
					CHANNELS 6 Xposition Yposition Zposition Xrotation Yrotation Zrotation
					JOINT mixamorig:RightArm
					{
						OFFSET -10.592851 -0.524811 -2.232101
						CHANNELS 6 Xposition Yposition Zposition Xrotation Yrotation Zrotation
						JOINT mixamorig:RightForeArm
						{
							OFFSET -27.841511 0.000031 -0.000004
							CHANNELS 6 Xposition Yposition Zposition Xrotation Yrotation Zrotation
							JOINT mixamorig:RightHand
							{
								OFFSET -28.328831 -0.000015 0.000015
								CHANNELS 6 Xposition Yposition Zposition Xrotation Yrotation Zrotation
								JOINT mixamorig:RightHandThumb1
								{
									OFFSET -2.464806 -1.573990 2.681852
									CHANNELS 6 Xposition Yposition Zposition Xrotation Yrotation Zrotation
									JOINT mixamorig:RightHandThumb2
									{
										OFFSET -3.215179 -1.872803 1.924282
										CHANNELS 6 Xposition Yposition Zposition Xrotation Yrotation Zrotation
										JOINT mixamorig:RightHandThumb3
										{
											OFFSET -2.654831 -1.527969 1.512609
											CHANNELS 6 Xposition Yposition Zposition Xrotation Yrotation Zrotation
											JOINT mixamorig:RightHandThumb4
											{
												OFFSET -2.018814 -1.152008 1.108052
												CHANNELS 6 Xposition Yposition Zposition Xrotation Yrotation Zrotation
												End Site
												{
													OFFSET -188.809540 -114.533607 132.431396
												}
											}
										}
									}
								}
								JOINT mixamorig:RightHandIndex1
								{
									OFFSET -9.108284 -0.517868 2.259835
									CHANNELS 6 Xposition Yposition Zposition Xrotation Yrotation Zrotation
									JOINT mixamorig:RightHandIndex2
									{
										OFFSET -3.699989 0.000000 0.001215
										CHANNELS 6 Xposition Yposition Zposition Xrotation Yrotation Zrotation
										JOINT mixamorig:RightHandIndex3
										{
											OFFSET -2.850006 0.000031 -0.000522
											CHANNELS 6 Xposition Yposition Zposition Xrotation Yrotation Zrotation
											JOINT mixamorig:RightHandIndex4
											{
												OFFSET -2.772186 -0.000015 -0.000020
												CHANNELS 6 Xposition Yposition Zposition Xrotation Yrotation Zrotation
												End Site
												{
													OFFSET -277.218445 0.000000 -0.050231
												}
											}
										}
									}
								}
								JOINT mixamorig:RightHandMiddle1
								{
									OFFSET -9.532516 -0.000031 -0.000023
									CHANNELS 6 Xposition Yposition Zposition Xrotation Yrotation Zrotation
									JOINT mixamorig:RightHandMiddle2
									{
										OFFSET -3.700005 -0.000015 0.003713
										CHANNELS 6 Xposition Yposition Zposition Xrotation Yrotation Zrotation
										JOINT mixamorig:RightHandMiddle3
										{
											OFFSET -2.949974 0.000015 -0.002054
											CHANNELS 6 Xposition Yposition Zposition Xrotation Yrotation Zrotation
											JOINT mixamorig:RightHandMiddle4
											{
												OFFSET -2.946640 0.000000 -0.000156
												CHANNELS 6 Xposition Yposition Zposition Xrotation Yrotation Zrotation
												End Site
												{
													OFFSET -294.664337 0.000000 -0.113670
												}
											}
										}
									}
								}
								JOINT mixamorig:RightHandRing1
								{
									OFFSET -9.103600 -0.043076 -1.865134
									CHANNELS 6 Xposition Yposition Zposition Xrotation Yrotation Zrotation
									JOINT mixamorig:RightHandRing2
									{
										OFFSET -3.379288 0.000000 -0.001055
										CHANNELS 6 Xposition Yposition Zposition Xrotation Yrotation Zrotation
										JOINT mixamorig:RightHandRing3
										{
											OFFSET -2.889687 -0.000015 0.000379
											CHANNELS 6 Xposition Yposition Zposition Xrotation Yrotation Zrotation
											JOINT mixamorig:RightHandRing4
											{
												OFFSET -2.638809 -0.000015 0.000941
												CHANNELS 6 Xposition Yposition Zposition Xrotation Yrotation Zrotation
												End Site
												{
													OFFSET -263.880371 0.000000 0.516020
												}
											}
										}
									}
								}
								JOINT mixamorig:RightHandPinky1
								{
									OFFSET -8.076683 -0.486710 -3.806280
									CHANNELS 6 Xposition Yposition Zposition Xrotation Yrotation Zrotation
									JOINT mixamorig:RightHandPinky2
									{
										OFFSET -3.600014 -0.000015 -0.003747
										CHANNELS 6 Xposition Yposition Zposition Xrotation Yrotation Zrotation
										JOINT mixamorig:RightHandPinky3
										{
											OFFSET -2.099983 0.000000 -0.005739
											CHANNELS 6 Xposition Yposition Zposition Xrotation Yrotation Zrotation
											JOINT mixamorig:RightHandPinky4
											{
												OFFSET -2.115768 -0.000031 -0.003680
												CHANNELS 6 Xposition Yposition Zposition Xrotation Yrotation Zrotation
												End Site
												{
													OFFSET -211.577087 0.000000 -0.350686
												}
											}
										}
									}
								}
							}
						}
					}
				}
				JOINT mixamorig:LeftShoulder
				{
					OFFSET 4.570447 11.014725 -2.160855
					CHANNELS 6 Xposition Yposition Zposition Xrotation Yrotation Zrotation
					JOINT mixamorig:LeftArm
					{
						OFFSET 10.592371 -0.524597 -2.232119
						CHANNELS 6 Xposition Yposition Zposition Xrotation Yrotation Zrotation
						JOINT mixamorig:LeftForeArm
						{
							OFFSET 27.841532 -0.000031 0.000026
							CHANNELS 6 Xposition Yposition Zposition Xrotation Yrotation Zrotation
							JOINT mixamorig:LeftHand
							{
								OFFSET 28.328846 -0.000061 0.000022
								CHANNELS 6 Xposition Yposition Zposition Xrotation Yrotation Zrotation
								JOINT mixamorig:LeftHandThumb1
								{
									OFFSET 2.466141 -1.576172 2.681732
									CHANNELS 6 Xposition Yposition Zposition Xrotation Yrotation Zrotation
									JOINT mixamorig:LeftHandThumb2
									{
										OFFSET 3.217812 -1.872070 1.916482
										CHANNELS 6 Xposition Yposition Zposition Xrotation Yrotation Zrotation
										JOINT mixamorig:LeftHandThumb3
										{
											OFFSET 2.656029 -1.528778 1.514513
											CHANNELS 6 Xposition Yposition Zposition Xrotation Yrotation Zrotation
											JOINT mixamorig:LeftHandThumb4
											{
												OFFSET 2.020889 -1.154053 1.115139
												CHANNELS 6 Xposition Yposition Zposition Xrotation Yrotation Zrotation
												End Site
												{
													OFFSET 190.885437 -115.081749 130.048782
												}
											}
										}
									}
								}
								JOINT mixamorig:LeftHandIndex1
								{
									OFFSET 9.109314 -0.518021 2.259871
									CHANNELS 6 Xposition Yposition Zposition Xrotation Yrotation Zrotation
									JOINT mixamorig:LeftHandIndex2
									{
										OFFSET 3.699989 0.000000 -0.000322
										CHANNELS 6 Xposition Yposition Zposition Xrotation Yrotation Zrotation
										JOINT mixamorig:LeftHandIndex3
										{
											OFFSET 2.850006 0.000000 0.000352
											CHANNELS 6 Xposition Yposition Zposition Xrotation Yrotation Zrotation
											JOINT mixamorig:LeftHandIndex4
											{
												OFFSET 2.774864 -0.000031 -0.000027
												CHANNELS 6 Xposition Yposition Zposition Xrotation Yrotation Zrotation
												End Site
												{
													OFFSET 277.486267 0.000000 -0.009857
												}
											}
										}
									}
								}
								JOINT mixamorig:LeftHandMiddle1
								{
									OFFSET 9.533394 0.000061 0.000044
									CHANNELS 6 Xposition Yposition Zposition Xrotation Yrotation Zrotation
									JOINT mixamorig:LeftHandMiddle2
									{
										OFFSET 3.699989 -0.000015 -0.000231
										CHANNELS 6 Xposition Yposition Zposition Xrotation Yrotation Zrotation
										JOINT mixamorig:LeftHandMiddle3
										{
											OFFSET 2.949997 -0.000015 -0.000059
											CHANNELS 6 Xposition Yposition Zposition Xrotation Yrotation Zrotation
											JOINT mixamorig:LeftHandMiddle4
											{
												OFFSET 2.952896 0.000031 0.000063
												CHANNELS 6 Xposition Yposition Zposition Xrotation Yrotation Zrotation
												End Site
												{
													OFFSET 295.289337 0.000000 0.022810
												}
											}
										}
									}
								}
								JOINT mixamorig:LeftHandRing1
								{
									OFFSET 9.104523 -0.042999 -1.865074
									CHANNELS 6 Xposition Yposition Zposition Xrotation Yrotation Zrotation
									JOINT mixamorig:LeftHandRing2
									{
										OFFSET 3.150009 -0.000031 0.000043
										CHANNELS 6 Xposition Yposition Zposition Xrotation Yrotation Zrotation
										JOINT mixamorig:LeftHandRing3
										{
											OFFSET 2.949982 -0.000015 0.000040
											CHANNELS 6 Xposition Yposition Zposition Xrotation Yrotation Zrotation
											JOINT mixamorig:LeftHandRing4
											{
												OFFSET 2.644348 0.000000 0.000057
												CHANNELS 6 Xposition Yposition Zposition Xrotation Yrotation Zrotation
												End Site
												{
													OFFSET 264.434631 0.000000 0.012105
												}
											}
										}
									}
								}
								JOINT mixamorig:LeftHandPinky1
								{
									OFFSET 8.077789 -0.486847 -3.806259
									CHANNELS 6 Xposition Yposition Zposition Xrotation Yrotation Zrotation
									JOINT mixamorig:LeftHandPinky2
									{
										OFFSET 3.599953 0.000031 0.014727
										CHANNELS 6 Xposition Yposition Zposition Xrotation Yrotation Zrotation
										JOINT mixamorig:LeftHandPinky3
										{
											OFFSET 2.100021 0.000015 0.007705
											CHANNELS 6 Xposition Yposition Zposition Xrotation Yrotation Zrotation
											JOINT mixamorig:LeftHandPinky4
											{
												OFFSET 2.125504 0.000031 0.007517
												CHANNELS 6 Xposition Yposition Zposition Xrotation Yrotation Zrotation
												End Site
												{
													OFFSET 212.550781 0.000000 0.625752
												}
											}
										}
									}
								}
							}
						}
					}
				}
			}
		}
	}
	JOINT mixamorig:RightUpLeg
	{
		OFFSET -8.207787 -6.751648 -1.599560
		CHANNELS 6 Xposition Yposition Zposition Xrotation Yrotation Zrotation
		JOINT mixamorig:RightLeg
		{
			OFFSET -0.000002 -44.370117 0.345942
			CHANNELS 6 Xposition Yposition Zposition Xrotation Yrotation Zrotation
			JOINT mixamorig:RightFoot
			{
				OFFSET 0.000003 -44.423679 -3.043532
				CHANNELS 6 Xposition Yposition Zposition Xrotation Yrotation Zrotation
				JOINT mixamorig:RightToeBase
				{
					OFFSET -0.000002 -8.728671 10.710558
					CHANNELS 6 Xposition Yposition Zposition Xrotation Yrotation Zrotation
					JOINT mixamorig:RightToe_End
					{
						OFFSET -0.000001 -0.000679 9.278119
						CHANNELS 6 Xposition Yposition Zposition Xrotation Yrotation Zrotation
						End Site
						{
							OFFSET 0.000000 -0.067690 927.812134
						}
					}
				}
			}
		}
	}
	JOINT mixamorig:LeftUpLeg
	{
		OFFSET 8.207793 -6.751686 -1.599556
		CHANNELS 6 Xposition Yposition Zposition Xrotation Yrotation Zrotation
		JOINT mixamorig:LeftLeg
		{
			OFFSET -0.000004 -44.370014 0.346954
			CHANNELS 6 Xposition Yposition Zposition Xrotation Yrotation Zrotation
			JOINT mixamorig:LeftFoot
			{
				OFFSET -0.000001 -44.423672 -3.044401
				CHANNELS 6 Xposition Yposition Zposition Xrotation Yrotation Zrotation
				JOINT mixamorig:LeftToeBase
				{
					OFFSET -0.000002 -8.728669 10.710558
					CHANNELS 6 Xposition Yposition Zposition Xrotation Yrotation Zrotation
					JOINT mixamorig:LeftToe_End
					{
						OFFSET -0.000003 -0.000679 9.278133
						CHANNELS 6 Xposition Yposition Zposition Xrotation Yrotation Zrotation
						End Site
						{
							OFFSET 0.000000 -0.068021 927.813477
						}
					}
				}
			}
		}
	}
}
MOTION
Frames: 3
Frame Time: 0.033333
0.000006 104.270477 1.554256 0.000010 0.000003 -0.000113 -0.000005 10.181587 0.131522 0.000001 -0.000003 0.000084 -0.000000 9.893967 -1.470711 0.000001 0.000000 -0.000000 -0.000000 9.220802 -1.370642 0.000000 -0.000000 -0.000000 0.000001 16.740433 -2.049030 0.000000 -0.000000 -0.000000 0.000000 9.617859 1.685014 0.000000 0.000000 0.000000 0.000002 22.037384 7.501101 0.000000 -0.000000 0.000000 -4.569968 11.014880 -2.160881 0.000008 0.000001 -0.000038 -10.592855 -0.524798 -2.231834 74.971223 41.974159 -32.787541 -27.841507 -0.000008 0.000561 -45.375115 111.168384 62.782320 -28.328819 0.000009 0.000035 -0.000320 -0.000044 0.000009 -2.464421 -1.573757 2.682310 -50.258817 -163.275194 -16.084969 -3.215277 -1.872555 1.924649 152.036801 31.689219 6.678363 -2.654953 -1.527849 1.513066 146.119794 27.521851 -32.277572 -2.018831 -1.152014 1.108061 -0.000003 -0.000006 0.000004 -9.108380 -0.517543 2.260177 107.581592 13.951595 -19.037469 -3.700062 0.000326 0.001541 104.163363 9.859448 -12.607599 -2.850058 0.000378 -0.000237 103.339396 7.429884 -9.388636 -2.772148 0.000000 -0.000019 0.000002 -0.000001 -0.000000 -9.532592 0.000283 0.000275 104.443428 12.724046 -16.549226 -3.700046 0.000336 0.004011 103.915782 8.757898 -11.062639 -2.950040 0.000345 -0.001770 104.161300 8.425560 -10.794207 -2.946609 0.000014 -0.000148 0.000002 0.000002 -0.000000 -9.103689 -0.042753 -1.864812 103.227210 15.200711 -19.066668 -3.379331 0.000321 -0.000744 106.849560 9.525856 -12.837502 -2.889776 0.000329 0.000731 111.189134 7.926343 -11.620582 -2.638802 -0.000027 0.000939 -0.000001 0.000000 0.000000 -8.076767 -0.486399 -3.805999 86.555347 21.637553 -20.253751 -3.600067 0.000267 -0.003504 89.812391 12.273671 -11.863193 -2.100023 0.000318 -0.005457 93.690490 7.308080 -7.553884 -2.115771 -0.000060 -0.003680 0.000001 -0.000000 -0.000002 4.570446 11.014691 -2.160851 -0.000018 0.000010 -0.000021 10.592468 -0.524588 -2.232331 10.993877 -70.875630 7.835812 27.841801 -0.000050 -0.000111 202.472584 -72.459107 210.341604 28.328838 -0.000013 0.000023 0.000019 -0.000089 0.000001 2.466026 -1.575799 2.681643 -223.209079 -30.603749 329.705690 3.217603 -1.871671 1.916406 137.845211 -31.756934 -59.915608 2.655975 -1.528445 1.514445 158.901551 -34.222038 -15.447581 2.020891 -1.154074 1.115134 0.000002 0.000004 0.000002 9.109393 -0.517776 2.259747 108.713785 -16.208338 22.446160 3.700094 0.000175 -0.000421 105.154642 -22.604183 29.299667 2.850102 0.000193 0.000234 101.602834 -20.532404 25.041263 2.774882 -0.000031 -0.000025 0.000003 -0.000000 0.000005 9.533463 0.000303 -0.000086 109.460379 -10.422271 14.684232 3.700074 0.000223 -0.000321 108.981132 -16.466145 22.922026 2.950087 0.000197 -0.000170 106.864853 -17.251424 23.119260 2.952865 -0.000045 0.000070 0.000002 0.000001 0.000000 9.104589 -0.042746 -1.865208 109.877608 -10.570158 15.020392 3.150040 0.000265 -0.000094 108.317771 -6.419790 8.881655 2.950017 0.000254 -0.000093 105.750726 -5.793787 7.651210 2.644318 0.000045 0.000044 -0.000001 -0.000000 0.000000 8.077864 -0.486588 -3.806392 115.968880 -12.122331 20.176319 3.599984 0.000315 0.014575 112.582937 -3.550507 5.996437 2.100000 0.000293 0.007542 109.448188 -0.493680 1.278613 2.125498 -0.000000 0.007513 -0.000003 -0.000001 -0.000001 -8.207786 -6.751667 -1.599560 -0.077001 -0.000003 0.000080 -0.000002 -44.370110 0.345938 0.153719 -0.000000 -0.000000 0.000000 -44.423679 -3.043532 -0.076700 0.000000 -0.000002 -0.000006 -8.728667 10.710559 -0.000009 -0.000000 -0.000000 -0.000001 -0.000679 9.278123 0.000000 -0.000000 -0.000000 8.207792 -6.751710 -1.599556 -0.074518 -0.000003 0.000081 -0.000002 -44.370014 0.346960 0.148822 0.000002 0.000000 -0.000001 -44.423664 -3.044403 -0.074314 0.000000 -0.000002 -0.000004 -8.728671 10.710558 0.000007 -0.000000 -0.000000 0.000000 -0.000680 9.278137 -0.000000 0.000000 -0.000001 
0.000006 104.270477 1.554256 0.000010 0.000003 -0.000113 -0.000005 10.181587 0.131522 0.000001 -0.000003 0.000084 -0.000000 9.893967 -1.470711 0.000001 0.000000 -0.000000 -0.000000 9.220802 -1.370642 0.000000 -0.000000 -0.000000 0.000001 16.740433 -2.049030 0.000000 -0.000000 -0.000000 0.000000 9.617859 1.685014 0.000000 0.000000 0.000000 0.000002 22.037384 7.501101 0.000000 -0.000000 0.000000 -4.569968 11.014880 -2.160881 0.000008 0.000001 -0.000038 -10.592847 -0.524807 -2.231825 74.890934 44.757454 -35.001605 -27.841496 0.000005 0.000559 -45.236558 111.266234 62.702325 -28.328844 0.000019 0.000024 -0.000321 -0.000045 0.000007 -2.464408 -1.573751 2.682308 -50.225308 -163.722626 -16.022852 -3.215274 -1.872589 1.924643 152.010737 31.572105 5.889258 -2.654955 -1.527876 1.513065 145.847188 27.543312 -32.535029 -2.018827 -1.152013 1.108066 -0.000002 -0.000003 0.000002 -9.108369 -0.517555 2.260150 106.925416 13.992618 -18.869284 -3.700046 0.000335 0.001526 104.156321 10.022502 -12.814233 -2.850066 0.000386 -0.000217 103.371512 7.632621 -9.649937 -2.772163 0.000003 -0.000026 0.000001 -0.000000 -0.000000 -9.532574 0.000273 0.000286 104.081646 12.850647 -16.604393 -3.700037 0.000343 0.004007 104.428340 9.118643 -11.627417 -2.950050 0.000358 -0.001763 104.542302 8.822432 -11.379090 -2.946618 -0.000000 -0.000149 0.000001 0.000003 0.000000 -9.103683 -0.042747 -1.864833 102.627233 15.604110 -19.365186 -3.379339 0.000329 -0.000741 107.260157 10.044604 -13.633512 -2.889761 0.000330 0.000706 111.298342 8.343342 -12.251227 -2.638815 -0.000015 0.000941 -0.000002 0.000000 -0.000001 -8.076761 -0.486397 -3.805998 86.454492 21.877958 -20.445427 -3.600059 0.000271 -0.003504 89.959540 12.563848 -12.182252 -2.100021 0.000315 -0.005477 93.258802 7.586604 -7.791065 -2.115774 -0.000043 -0.003681 0.000001 -0.000001 -0.000001 4.570446 11.014691 -2.160851 -0.000018 0.000010 -0.000021 10.592470 -0.524586 -2.232331 11.492776 -70.696146 8.165505 27.841799 -0.000046 -0.000118 203.062931 -72.364932 211.172251 28.328840 -0.000028 0.000022 0.000019 -0.000089 -0.000000 2.466008 -1.575852 2.681625 -229.146918 -28.530626 325.110748 3.217575 -1.871690 1.916407 130.972142 -27.001782 -71.637155 2.655873 -1.528394 1.514462 146.083526 -34.453643 -46.634226 2.020891 -1.154074 1.115145 0.000003 0.000004 0.000002 9.109376 -0.517824 2.259727 101.196137 -15.443097 18.730177 3.700082 0.000156 -0.000465 95.946283 -22.207103 24.590095 2.850067 0.000205 0.000226 90.320400 -17.694906 17.791179 2.774888 -0.000030 -0.000012 0.000001 -0.000001 -0.000000 9.533448 0.000236 -0.000091 100.494486 -10.305594 12.365092 3.700063 0.000175 -0.000364 94.837136 -16.448193 17.873382 2.950072 0.000179 -0.000199 90.210256 -15.475513 15.534758 2.952866 -0.000034 0.000080 0.000001 -0.000000 -0.000000 9.104587 -0.042819 -1.865221 101.429621 -11.029673 13.464508 3.150046 0.000237 -0.000097 95.525106 -9.385330 10.334015 2.950007 0.000206 -0.000088 91.661152 -6.726964 6.926102 2.644320 0.000030 0.000054 0.000001 0.000001 -0.000001 8.077853 -0.486660 -3.806400 105.985323 -11.825696 16.387587 3.599999 0.000280 0.014579 101.491994 -5.909107 7.797632 2.100013 0.000256 0.007517 96.954863 -1.860153 2.574848 2.125494 -0.000000 0.007519 0.000001 0.000002 0.000000 -8.207786 -6.751667 -1.599560 -0.077001 -0.000003 0.000080 -0.000002 -44.370110 0.345938 0.153719 -0.000000 -0.000000 0.000000 -44.423679 -3.043532 -0.076700 0.000000 -0.000002 -0.000006 -8.728667 10.710559 -0.000009 -0.000000 -0.000000 -0.000001 -0.000679 9.278123 0.000000 -0.000000 -0.000000 8.207792 -6.751710 -1.599556 -0.074518 -0.000003 0.000081 -0.000002 -44.370014 0.346960 0.148822 0.000002 0.000000 -0.000001 -44.423664 -3.044403 -0.074314 0.000000 -0.000002 -0.000004 -8.728671 10.710558 0.000007 -0.000000 -0.000000 0.000000 -0.000680 9.278137 -0.000000 0.000000 -0.000001 
0.000006 104.270477 1.554256 0.000010 0.000003 -0.000113 -0.000005 10.181587 0.131522 0.000001 -0.000003 0.000084 -0.000000 9.893967 -1.470711 0.000001 0.000000 -0.000000 -0.000000 9.220802 -1.370642 0.000000 -0.000000 -0.000000 0.000001 16.740433 -2.049030 0.000000 -0.000000 -0.000000 0.000000 9.617859 1.685014 0.000000 0.000000 0.000000 0.000002 22.037384 7.501101 0.000000 -0.000000 0.000000 -4.569968 11.014880 -2.160881 0.000008 0.000001 -0.000038 -10.592850 -0.524812 -2.231825 74.802661 44.417793 -34.672964 -27.841499 0.000006 0.000560 -45.136608 111.500195 62.800441 -28.328835 0.000021 0.000030 -0.000321 -0.000044 0.000006 -2.464400 -1.573759 2.682302 -50.961657 -164.829199 -18.045756 -3.215276 -1.872570 1.924638 151.511259 31.645223 6.924046 -2.654977 -1.527887 1.513057 146.045045 27.611689 -31.365960 -2.018819 -1.152013 1.108065 -0.000003 0.000003 0.000005 -9.108373 -0.517542 2.260147 106.454652 13.961312 -18.669533 -3.700051 0.000325 0.001539 103.920973 10.115175 -12.878380 -2.850054 0.000380 -0.000219 103.339710 7.787395 -9.839693 -2.772146 -0.000000 -0.000020 -0.000002 -0.000002 -0.000001 -9.532568 0.000274 0.000278 103.587564 12.724391 -16.300115 -3.700050 0.000342 0.004005 103.911172 9.213054 -11.640476 -2.950055 0.000346 -0.001777 104.269033 8.948832 -11.485481 -2.946620 0.000015 -0.000156 0.000002 0.000000 -0.000002 -9.103691 -0.042749 -1.864827 102.006997 15.574539 -19.119641 -3.379333 0.000319 -0.000739 106.535528 10.166241 -13.618169 -2.889758 0.000343 0.000714 110.815209 8.437704 -12.277923 -2.638803 -0.000000 0.000940 0.000000 0.000004 0.000000 -8.076763 -0.486406 -3.806020 85.596600 21.932137 -20.197452 -3.600073 0.000268 -0.003503 89.907652 12.765246 -12.371550 -2.100027 0.000307 -0.005461 93.432296 7.663292 -7.895788 -2.115771 -0.000045 -0.003678 -0.000000 -0.000000 -0.000002 4.570446 11.014691 -2.160851 -0.000018 0.000010 -0.000021 10.592469 -0.524589 -2.232332 11.899766 -70.907821 8.488703 27.841797 -0.000058 -0.000112 203.315593 -72.214955 211.588319 28.328838 -0.000043 0.000022 0.000020 -0.000089 0.000000 2.466006 -1.575790 2.681637 -229.194265 -28.503599 321.775266 3.217608 -1.871684 1.916371 134.144710 -29.479271 -66.591134 2.655949 -1.528415 1.514440 156.524030 -35.112117 -23.678350 2.020901 -1.154060 1.115161 -0.000000 -0.000004 0.000004 9.109389 -0.517792 2.259759 102.885298 -16.956809 21.170248 3.700074 0.000158 -0.000471 96.349012 -23.777447 26.496983 2.850067 0.000186 0.000211 89.932910 -18.486885 18.464243 2.774878 -0.000048 -0.000030 0.000001 0.000000 -0.000002 9.533457 0.000282 -0.000098 102.133847 -11.199471 13.829497 3.700066 0.000180 -0.000342 95.628461 -17.701200 19.494816 2.950075 0.000159 -0.000190 91.302806 -16.160448 16.530188 2.952870 -0.000013 0.000067 0.000001 0.000001 0.000004 9.104588 -0.042782 -1.865210 103.005707 -11.399250 14.307312 3.150046 0.000237 -0.000098 97.296926 -9.136186 10.376267 2.950015 0.000234 -0.000101 93.882405 -6.054713 6.480410 2.644331 0.000030 0.000071 -0.000000 0.000000 0.000001 8.077844 -0.486614 -3.806399 106.315146 -12.118647 16.874927 3.599996 0.000292 0.014582 103.589757 -5.444057 7.501437 2.100007 0.000273 0.007536 100.316464 -1.127107 1.847936 2.125511 0.000016 0.007544 0.000002 0.000001 0.000000 -8.207786 -6.751667 -1.599560 -0.077001 -0.000003 0.000080 -0.000002 -44.370110 0.345938 0.153719 -0.000000 -0.000000 0.000000 -44.423679 -3.043532 -0.076700 0.000000 -0.000002 -0.000006 -8.728667 10.710559 -0.000009 -0.000000 -0.000000 -0.000001 -0.000679 9.278123 0.000000 -0.000000 -0.000000 8.207792 -6.751710 -1.599556 -0.074518 -0.000003 0.000081 -0.000002 -44.370014 0.346960 0.148822 0.000002 0.000000 -0.000001 -44.423664 -3.044403 -0.074314 0.000000 -0.000002 -0.000004 -8.728671 10.710558 0.000007 -0.000000 -0.000000 0.000000 -0.000680 9.278137 -0.000000 0.000000 -0.000001 
